<?xml version="1.0" encoding="utf-8"?>
<!-- Generator: Adobe Illustrator 23.0.1, SVG Export Plug-In . SVG Version: 6.00 Build 0)  -->
<svg version="1.1" id="레이어_1" xmlns="http://www.w3.org/2000/svg" xmlns:xlink="http://www.w3.org/1999/xlink" x="0px"
	 y="0px" viewBox="0 0 1130.6 515.8" style="enable-background:new 0 0 1130.6 515.8;" xml:space="preserve">
<g>
	<g>
		<path d="M3.5,350.5c0,11,8.2,20,18.3,20l29.3,0c10.1,0,18.3-8.9,18.4-20l0.1-176.1c0-11,8.2-20,18.4-20l47.7,0l-0.2,196.1
			c0,11,8.2,20,18.3,20l29.3,0c10.1,0,18.3-8.9,18.4-20l0.1-176.1c0-11,8.2-20,18.4-20l29.3,0c10.1,0,18.3-8.9,18.4-20l0-32
			c0-11.1-8.2-20-18.3-20L22.1,82.4c-10.1,0-18.3,8.9-18.4,20L3.5,350.5z"/>
		<path d="M795.6,350.6c0,11,8.2,20,18.3,20l29.3,0c10.1,0,18.3-8.9,18.4-20L861.9,30c0-11-8.2-20-18.3-20l-29.3,0
			c-10.1,0-18.3,8.9-18.4,20L795.6,350.6z"/>
		<path d="M1013.3,505.8c-10.1,0-18.3-9-18.3-20l0-32c0-11,8.2-20,18.4-20l29.3,0c9.3,0,16.9-7.5,18.1-17.3l0.2-312.8
			c0-11,8.2-20,18.4-20l29.3,0c10.1,0,18.3,9,18.3,20l-0.1,382.1c0,11.1-8.2,20-18.4,20L1013.3,505.8z"/>
		<path d="M993.7,285.8c0,7.1,5.3,12.9,11.8,12.9l17.4,0c10.1,0,18.3,9,18.3,20l0,32c0,11.1-8.2,20-18.4,20l-76.8-0.1
			c-10.1,0-18.3-9-18.3-20l0.2-248.1c0-11.1,8.2-20,18.4-20l29.3,0c10.1,0,18.3,9,18.3,20L993.7,285.8z"/>
		<path d="M663.6,350.6c0,11,8.2,20,18.3,20l29.3,0c10.1,0,18.3-8.9,18.4-20L729.9,30c0-11-8.2-20-18.3-20l-29.3,0
			c-10.1,0-18.3,8.9-18.4,20L663.6,350.6z"/>
		<path d="M267.6,350.6c0,11,8.2,20,18.3,20l29.3,0c10.1,0,18.3-8.9,18.4-20l0.1-179.4c0-11-8.2-20-18.3-20l-29.3,0
			c-10.1,0-18.3,8.9-18.4,20L267.6,350.6z"/>
		<path d="M597.6,350.7c0,11-8.2,20-18.4,20l-161.4-0.1c-10.1,0-18.3-9-18.3-20l0.1-176.1c0-11,8.2-20,18.4-20l0.4,0l47.2,0l47.7,0
			l1,0l0,0.1c9.7,0.6,17.3,9.3,17.3,20l0,32c0,10.7-7.7,19.4-17.3,19.9l0,0l-0.6,0c-0.2,0-0.3,0-0.5,0l-29.3,0
			c-10.1,0-18.3,8.9-18.4,20l0,32c0,11,8.2,20,18.3,20l29.3,0c10.1,0,18.3-8.9,18.4-20l0-32c0-11,8.2-20,18.4-20l29.3,0
			c10.1,0,18.3,9,18.3,20L597.6,350.7z"/>
	</g>
	<g>
		<path d="M32.5,483.6H16.8L13.4,496H3.5l15.5-48.5h11.4L46.1,496H35.9L32.5,483.6z M30.4,476l-1.4-5.3c-1.5-5-2.8-10.6-4.3-15.9
			h-0.3c-1.2,5.3-2.7,10.8-4.1,15.9l-1.4,5.3H30.4z"/>
		<path d="M51.8,447.5h10.7l8.3,22.7c1,3,2,6.2,2.9,9.4H74c1-3.1,1.9-6.4,2.9-9.4l8.1-22.7h10.7V496h-8.8v-20.2
			c0-4.6,0.7-11.3,1.2-15.9h-0.3l-3.9,11.4l-7.5,20.4h-5.6l-7.5-20.4l-3.9-11.4h-0.3c0.5,4.6,1.2,11.3,1.2,15.9V496h-8.7V447.5z"/>
		<path d="M130.4,483.6h-15.7l-3.4,12.4h-9.8l15.5-48.5h11.4L144,496h-10.2L130.4,483.6z M128.3,476l-1.4-5.3
			c-1.5-5-2.8-10.6-4.3-15.9h-0.3c-1.2,5.3-2.7,10.8-4.1,15.9l-1.4,5.3H128.3z"/>
		<path d="M146.3,490.2l22.6-34.6h-20.4v-8.1h32.3v5.8l-22.5,34.6H181v8.1h-34.7V490.2z"/>
		<path d="M189.6,447.5h9.7V496h-9.7V447.5z"/>
		<path d="M211.2,447.5h9.9l14.1,25.8l4.8,10.5h0.3c-0.5-5-1.2-11.5-1.2-17v-19.3h9.2V496h-9.8l-14-25.9l-4.9-10.4h-0.3
			c0.5,5.2,1.2,11.3,1.2,16.9V496h-9.2V447.5z"/>
		<path d="M257.9,472c0-16,10.4-25.4,23.3-25.4c7,0,11.9,3,15,6.2l-5.2,6.2c-2.4-2.3-5.1-4.1-9.5-4.1c-8.1,0-13.7,6.3-13.7,16.7
			c0,10.5,4.8,16.9,14.3,16.9c2.4,0,4.7-0.7,6.1-1.8v-9.6h-8.6v-7.9h17.2v21.9c-3.3,3.2-9,5.8-15.7,5.8
			C267.9,496.9,257.9,488.1,257.9,472z"/>
		<path d="M322.1,447.5H338c10.7,0,19,3.7,19,15.2c0,11.1-8.3,16-18.7,16h-6.5V496h-9.7V447.5z M337.7,471.1c6.7,0,9.9-2.8,9.9-8.4
			c0-5.6-3.5-7.5-10.2-7.5h-5.5v15.9H337.7z"/>
		<path d="M392.2,496l-10-18.3h-6.7V496h-9.7v-48.5h16.9c10.2,0,18.2,3.5,18.2,14.7c0,7.3-3.7,11.8-9.2,14L403,496H392.2z
			 M375.5,470h6.3c6.2,0,9.6-2.6,9.6-7.8c0-5.2-3.4-7-9.6-7h-6.3V470z"/>
		<path d="M410.5,447.5h9.7V496h-9.7V447.5z"/>
		<path d="M429.7,472c0-16,10.3-25.4,22.5-25.4c6.2,0,11.1,2.9,14.2,6.2l-5.1,6.2c-2.4-2.4-5.2-4.1-8.9-4.1
			c-7.3,0-12.8,6.3-12.8,16.7c0,10.5,5,16.9,12.6,16.9c4.1,0,7.4-2,10-4.8l5.1,6c-4,4.7-9.2,7.1-15.5,7.1
			C439.7,496.9,429.7,488.1,429.7,472z"/>
		<path d="M475.2,447.5h29.7v8.1h-20v11.2h17v8.1h-17v13h20.8v8.1h-30.5V447.5z"/>
		<path d="M556.7,496l-10-18.3H540V496h-9.7v-48.5h16.9c10.2,0,18.2,3.5,18.2,14.7c0,7.3-3.7,11.8-9.2,14l11.3,19.8H556.7z M540,470
			h6.3c6.2,0,9.6-2.6,9.6-7.8c0-5.2-3.4-7-9.6-7H540V470z"/>
		<path d="M575,447.5h29.7v8.1h-20v11.2h17v8.1h-17v13h20.8v8.1H575V447.5z"/>
		<path d="M609,447.5h10.2l6.4,23.6c1.5,5.4,2.5,10.2,4.1,15.7h0.3c1.5-5.4,2.6-10.3,4.1-15.7l6.3-23.6h9.8L635.3,496h-11.5
			L609,447.5z"/>
		<path d="M652.6,471.6c0-15.8,8.8-25,21.7-25s21.7,9.2,21.7,25s-8.8,25.4-21.7,25.4S652.6,487.3,652.6,471.6z M686,471.6
			c0-10.4-4.6-16.6-11.8-16.6s-11.8,6.2-11.8,16.6c0,10.3,4.6,17,11.8,17S686,481.9,686,471.6z"/>
		<path d="M705.4,447.5h9.7v40.4h19.7v8.1h-29.3V447.5z"/>
		<path d="M740.4,474.2v-26.7h9.7V475c0,10.1,3.5,13.5,9.2,13.5c5.8,0,9.4-3.4,9.4-13.5v-27.5h9.3v26.7c0,16.1-6.9,22.7-18.7,22.7
			C747.5,496.9,740.4,490.3,740.4,474.2z"/>
		<path d="M799.3,455.6h-13.6v-8.1h37.1v8.1H809V496h-9.7V455.6z"/>
		<path d="M830.6,447.5h9.7V496h-9.7V447.5z"/>
		<path d="M849.8,471.6c0-15.8,8.8-25,21.7-25s21.7,9.2,21.7,25s-8.8,25.4-21.7,25.4S849.8,487.3,849.8,471.6z M883.3,471.6
			c0-10.4-4.6-16.6-11.8-16.6s-11.8,6.2-11.8,16.6c0,10.3,4.6,17,11.8,17S883.3,481.9,883.3,471.6z"/>
		<path d="M902.7,447.5h9.9l14.1,25.8l4.8,10.5h0.3c-0.5-5-1.2-11.5-1.2-17v-19.3h9.2V496h-9.8l-14-25.9l-4.9-10.4h-0.3
			c0.5,5.2,1.2,11.3,1.2,16.9V496h-9.2V447.5z"/>
	</g>
</g>
</svg>
