<svg width="126" height="45" viewBox="0 0 126 45" fill="none" xmlns="http://www.w3.org/2000/svg">
<g clip-path="url(#clip0_2410_24194)">
<path d="M68.8541 13.4536C61.3329 13.4536 57.3784 19.4845 57.3784 25.4382C57.3784 32.3196 62.1858 37.268 68.8541 37.268C75.5224 37.268 80.4073 32.3196 80.4073 25.4382C80.4073 18.4794 75.5224 13.4536 68.8541 13.4536ZM73.739 25.3608C73.739 28.2217 72.1107 31.1598 68.8541 31.1598C65.7526 31.1598 64.1243 28.2217 64.1243 25.3608C64.1243 22.5773 65.7526 19.5619 68.8541 19.5619C72.0332 19.5619 73.739 22.5773 73.739 25.3608Z" fill="white"/>
<path d="M125.457 14.6907C124.915 13.9175 123.984 13.4536 123.054 13.4536H122.356C121.038 13.4536 119.952 14.3041 119.564 15.5412L115.998 26.5206C115.92 26.8299 115.843 27.1392 115.688 27.4485C115.61 27.1392 115.533 26.8299 115.377 26.5206L111.656 15.4639C111.268 14.2268 110.105 13.4536 108.864 13.4536H108.244C107.236 13.4536 106.383 13.9175 105.84 14.6907C105.297 15.4639 105.142 16.4691 105.453 17.3969L111.345 33.866C111.656 34.7938 112.121 35.4124 112.664 35.8763L112.586 36.1083C111.966 37.732 110.57 38.9691 109.174 38.9691H107.934C105.84 38.9691 105.84 40.9794 105.84 41.9845C105.84 42.9897 105.84 45 107.934 45H109.252C113.749 45 117.083 42.3711 118.867 37.4227L125.845 17.3196C126.155 16.4691 126 15.4639 125.457 14.6907Z" fill="white"/>
<path d="M87.3081 6.80408H86.3776C84.7493 6.80408 83.4312 8.11851 83.4312 9.74222V34.1752C83.4312 35.7989 84.7493 37.1134 86.3776 37.1134H87.3081C88.9364 37.1134 90.2545 35.7989 90.2545 34.1752V9.74222C90.3321 8.11851 89.0139 6.80408 87.3081 6.80408Z" fill="white"/>
<path d="M98.4736 6.80408H97.5431C95.9148 6.80408 94.5967 8.11851 94.5967 9.74222V34.1752C94.5967 35.7989 95.9148 37.1134 97.5431 37.1134H98.4736C100.102 37.1134 101.42 35.7989 101.42 34.1752V9.74222C101.42 8.11851 100.102 6.80408 98.4736 6.80408Z" fill="white"/>
<path d="M4.80759 37.8092C4.18729 37.8092 3.48944 37.6546 2.86913 37.4226C0.46544 36.3402 -0.620099 33.4793 0.46544 31.0824L8.76206 12.3711C9.53744 10.67 11.2433 9.58757 13.1042 9.51025C14.9651 9.51025 16.671 10.5154 17.5239 12.2164L26.5184 30.9278C27.6814 33.3247 26.6734 36.1855 24.2697 37.3453C21.8661 38.5051 18.9971 37.4999 17.8341 35.103L13.3368 25.7474L9.22729 34.9484C8.37436 36.7267 6.66852 37.8092 4.80759 37.8092Z" fill="#FBFF35"/>
<path d="M22.1761 37.8093C21.4783 37.8093 20.7804 37.6546 20.1601 37.3454C17.7564 36.2629 16.6709 33.4021 17.834 31.0052L30.8604 2.78351C31.6358 1.08247 33.3417 0 35.1251 0C36.986 0 38.6918 1.00515 39.4672 2.62887L53.5792 30.8505C54.7423 33.2474 53.8118 36.1083 51.4081 37.268C49.0044 38.4278 46.1355 37.5 44.9724 35.1031L35.2801 15.7732L26.5183 35.0258C25.7429 36.8041 23.9595 37.8093 22.1761 37.8093Z" fill="white"/>
</g>
<defs>
<clipPath id="clip0_2410_24194">
<rect width="126" height="45" fill="white"/>
</clipPath>
</defs>
</svg>
